<svg width="180" height="180" viewBox="0 0 180 180" fill="none" xmlns="http://www.w3.org/2000/svg">
<rect width="180" height="180" fill="#82868B"/>
<path d="M90.2213 93.1795C110.079 93.1795 126.311 76.9471 126.311 57.0897C126.311 37.2324 110.079 21 90.2213 21C70.3639 21 54.1318 37.2324 54.1318 57.0897C54.1318 76.9471 70.3642 93.1795 90.2213 93.1795Z" fill="#F8FAFC"/>
<path d="M152.156 122.018C151.211 119.654 149.95 117.448 148.532 115.399C141.282 104.682 130.093 97.5906 117.485 95.857C115.909 95.6996 114.176 96.0145 112.915 96.9602C106.296 101.846 98.4161 104.367 90.2209 104.367C82.0256 104.367 74.1459 101.846 67.5268 96.9602C66.2659 96.0145 64.5323 95.5418 62.9565 95.857C50.3487 97.5906 39.0019 104.682 31.9101 115.399C30.4917 117.448 29.2308 119.812 28.2854 122.018C27.8128 122.964 27.9702 124.067 28.4429 125.013C29.7038 127.219 31.2796 129.426 32.698 131.317C34.9043 134.311 37.2683 136.99 39.9475 139.512C42.1538 141.718 44.6753 143.767 47.1971 145.815C59.6471 155.114 74.6189 159.999 90.0634 159.999C105.508 159.999 120.48 155.114 132.93 145.815C135.451 143.924 137.973 141.718 140.179 139.512C142.701 136.99 145.222 134.311 147.429 131.317C149.005 129.268 150.423 127.219 151.684 125.013C152.471 124.067 152.629 122.964 152.156 122.018Z" fill="#F8FAFC"/>
</svg>
