<svg width="1639" height="342" viewBox="0 0 1639 342" fill="none" xmlns="http://www.w3.org/2000/svg">
<g clip-path="url(#clip0_103_18)">
<path d="M0 -0.00292969V341.996H513V-0.00292969H0Z" fill="white"/>
<path d="M0 0H513V342.004H0V0Z" fill="#0052B4"/>
<path d="M0 0H513V113.997H0V0Z" fill="white"/>
<path d="M0 227.995H513V341.992H0V227.995Z" fill="#D80027"/>
</g>
<path d="M563 0.00390625H1076V341.997H563V0.00390625Z" fill="#FFDA44"/>
<path d="M563 0.00390625H1076V171H563V0.00390625Z" fill="#338AF3"/>
<path d="M1126 0H1639V342H1126V0Z" fill="#007C30"/>
<path d="M1126 230H1639V0H1126" fill="#CE1720"/>
<path d="M1226 230V0H1126V342H1639H1226V230Z" fill="white"/>
<path d="M1154 159.6L1134.6 128.2L1154 97.4004L1173.3 128.2L1154 159.6ZM1198.6 159.6L1179.3 128.2L1198.6 97.4004L1218 128.2L1198.6 159.6ZM1154 241.2L1134.6 209.8L1154 179L1173.3 209.8L1154 241.2ZM1198.6 241.2L1179.3 209.8L1198.6 179L1218 209.8L1198.6 241.2Z" fill="#CE1720"/>
<path d="M1154 73.8002L1137.9 47.8002L1154 22.2002L1170 47.8002L1154 73.8002ZM1198.6 73.8002L1182.6 47.8002L1198.6 22.2002L1214.7 47.8002L1198.6 73.8002ZM1154 318L1137.9 291.9L1154 266.3L1170 291.9L1154 318ZM1198.6 318L1182.6 291.9L1198.6 266.3L1214.7 291.9L1198.6 318Z" stroke="#CE1720" stroke-width="7"/>
<defs>
<clipPath id="clip0_103_18">
<rect width="513" height="342" fill="white"/>
</clipPath>
</defs>
</svg>
