<svg width="504" height="56" viewBox="0 0 504 56" fill="none" xmlns="http://www.w3.org/2000/svg">
<g clip-path="url(#clip0)">
<path d="M18.1716 14.0244C19.3622 13.0955 20.125 11.6755 20.125 10.0869C20.125 7.29528 17.77 5.02441 14.8749 5.02441H6.125V7.27443H7.29165V20.7744H6.125V23.0244H14.875C17.77 23.0244 20.125 20.7536 20.125 17.962C20.125 16.3732 19.3622 14.9533 18.1716 14.0244ZM14.8749 20.7744H9.62496V15.1494H14.8749C16.4831 15.1494 17.7916 16.4112 17.7916 17.9619C17.7916 19.5126 16.4831 20.7744 14.8749 20.7744ZM14.8749 12.8994H9.62496V7.27443H14.8749C16.4831 7.27443 17.7916 8.53621 17.7916 10.0869C17.7916 11.6376 16.4831 12.8994 14.8749 12.8994Z" fill="#6B7B8B"/>
</g>
<g clip-path="url(#clip1)">
<path d="M49 7.25001V5H42.5V7.25001H44.1072L38.5358 20.75H36V23H42.5V20.75H40.8928L46.4642 7.25001H49Z" fill="#6B7B8B"/>
</g>
<g clip-path="url(#clip2)">
<path d="M62 5.02441V8.36307H64.638V7.2502H68.5949V11.7017H71.2329V7.2502H75.1898V8.36307H77.8278V5.02441H62Z" fill="#6B7B8B"/>
<path d="M71.2759 16.1533H68.638V20.6048H66V22.8306H73.9139V20.6048H71.2759V16.1533H71.2759Z" fill="#6B7B8B"/>
<path d="M62 12.8135H77.8277V15.0393H62V12.8135Z" fill="#6B7B8B"/>
</g>
<g clip-path="url(#clip3)">
<path d="M94.0312 10.0469L90.2373 14.0537L94.0312 18.0605L95.1041 16.9273L92.3832 14.0537L95.1041 11.18L94.0312 10.0469Z" fill="#6B7B8B"/>
<path d="M102.444 10.0469L101.371 11.18L104.092 14.0537L101.371 16.9273L102.444 18.0605L106.238 14.0536L102.444 10.0469Z" fill="#6B7B8B"/>
<path d="M98.8059 9.05664H100.682L97.6488 19.0566H95.7725L98.8059 9.05664Z" fill="#6B7B8B"/>
</g>
<path d="M133.364 12.6615L128.07 7.30579C127.694 6.92541 127.085 6.92541 126.709 7.30579L118.528 15.5829C118.152 15.9632 118.152 16.5795 118.528 16.9598L121.897 20.368C122.077 20.5507 122.322 20.6533 122.577 20.6533H126.427C126.682 20.6533 126.927 20.5507 127.108 20.368L133.364 14.0386C133.74 13.6581 133.74 13.0419 133.364 12.6615ZM126.029 18.7058H122.976L120.57 16.2714L123.299 13.5098L127.232 17.4886L126.029 18.7058Z" fill="#6B7B8B"/>
<path d="M149.904 9.11719L146.255 13.8086L149.904 18.4999L150.936 17.1731L148.319 13.8086L150.936 10.444L149.904 9.11719Z" fill="#6B7B8B"/>
<path d="M157.995 9.11719L156.963 10.444L159.58 13.8086L156.963 17.1731L157.995 18.4999L161.644 13.8085L157.995 9.11719Z" fill="#6B7B8B"/>
<path d="M156.03 12.2866L155.338 11.3965L153.94 13.1919L152.542 11.3965L151.85 12.2866L153.247 14.0821L151.85 15.8775L152.542 16.7677L153.94 14.9722L155.338 16.7677L156.03 15.8775L154.633 14.0821L156.03 12.2866Z" fill="#6B7B8B"/>
<g clip-path="url(#clip4)">
<path d="M189.262 5H180.359C176.853 5 174 7.49636 174 10.5644C174 13.6324 176.853 16.1288 180.359 16.1288H181.631V22.8061H184.175V7.22578H185.447V22.8062H187.991V7.22578H189.262V5ZM181.631 13.903H180.359C178.255 13.903 176.544 12.4054 176.544 10.5644C176.544 8.72336 178.255 7.22574 180.359 7.22574H181.631V13.903Z" fill="#6B7B8B"/>
</g>
<g clip-path="url(#clip5)">
<path d="M202.055 6H204.31V19.6328H202.055V6Z" fill="#6B7B8B"/>
<path d="M210.155 6.1543V11.8424H204.31V14.0991H210.155V19.7872H212.41V6.1543H210.155Z" fill="#6B7B8B"/>
<path d="M216.811 21.9879H215.285V16.1025L213.462 16.6678V15.4263L216.648 14.2852H216.811V21.9879Z" fill="#6B7B8B"/>
</g>
<g clip-path="url(#clip6)">
<path d="M230.063 6H232.319V19.6328H230.063V6Z" fill="#6B7B8B"/>
<path d="M238.164 6.1543V11.8424H232.318V14.0991H238.164V19.7871H240.419V6.1543H238.164Z" fill="#6B7B8B"/>
<path d="M245.876 21.9892H240.603V20.9432L243.092 18.2911C243.433 17.9177 243.685 17.592 243.847 17.3137C244.013 17.0354 244.095 16.7713 244.095 16.5212C244.095 16.1796 244.009 15.9119 243.837 15.7183C243.664 15.521 243.417 15.4224 243.097 15.4224C242.752 15.4224 242.479 15.5421 242.278 15.7816C242.081 16.0176 241.982 16.3293 241.982 16.7167H240.45C240.45 16.2483 240.561 15.8204 240.783 15.4329C241.008 15.0455 241.325 14.7426 241.734 14.5243C242.143 14.3024 242.606 14.1914 243.123 14.1914C243.916 14.1914 244.53 14.3816 244.967 14.762C245.407 15.1424 245.628 15.6795 245.628 16.3733C245.628 16.7537 245.529 17.1411 245.332 17.5356C245.135 17.9301 244.796 18.3897 244.317 18.9145L242.569 20.7583H245.876V21.9892Z" fill="#6B7B8B"/>
</g>
<g clip-path="url(#clip7)">
<path d="M258 6H260.28V19.7812H258V6Z" fill="#6B7B8B"/>
<path d="M266.189 6.15625V11.9063H260.279V14.1875H266.189V19.9375H268.468V6.15625H266.189Z" fill="#6B7B8B"/>
<path d="M270.269 17.362H271.111C271.513 17.362 271.81 17.2616 272.003 17.061C272.196 16.8603 272.293 16.5939 272.293 16.2619C272.293 15.9408 272.196 15.6909 272.003 15.5121C271.813 15.3333 271.551 15.2439 271.215 15.2439C270.912 15.2439 270.659 15.3279 270.455 15.4957C270.251 15.6599 270.148 15.8752 270.148 16.1415H268.567C268.567 15.7256 268.678 15.3534 268.901 15.025C269.127 14.693 269.441 14.4339 269.842 14.2479C270.247 14.0618 270.692 13.9688 271.177 13.9688C272.019 13.9688 272.68 14.1713 273.157 14.5762C273.635 14.9776 273.874 15.5322 273.874 16.24C273.874 16.6049 273.763 16.9406 273.54 17.247C273.318 17.5535 273.026 17.7888 272.665 17.953C273.114 18.1136 273.447 18.3544 273.666 18.6755C273.889 18.9965 274 19.376 274 19.8138C274 20.5217 273.741 21.089 273.223 21.5159C272.709 21.9428 272.027 22.1562 271.177 22.1562C270.382 22.1562 269.731 21.9465 269.224 21.5269C268.72 21.1073 268.469 20.5527 268.469 19.8631H270.05C270.05 20.1623 270.161 20.4067 270.384 20.5965C270.61 20.7862 270.887 20.8811 271.215 20.8811C271.591 20.8811 271.885 20.7825 272.096 20.5855C272.311 20.3848 272.419 20.1203 272.419 19.7919C272.419 18.9965 271.981 18.5988 271.106 18.5988H270.269V17.362Z" fill="#6B7B8B"/>
</g>
<g clip-path="url(#clip8)">
<path d="M289.585 13.1309H302.156V15.4166H289.585V13.1309Z" fill="#6B7B8B"/>
<path d="M289.585 19.04H302.156V21.3258H289.585V19.04Z" fill="#6B7B8B"/>
<path d="M289.585 7.2207H302.156V9.50643H289.585V7.2207Z" fill="#6B7B8B"/>
<path d="M286.039 7.2207H288.325V9.50643H286.039V7.2207Z" fill="#6B7B8B"/>
<path d="M286.039 13.1309H288.325V15.4166H286.039V13.1309Z" fill="#6B7B8B"/>
<path d="M286.039 19.04H288.325V21.3258H286.039V19.04Z" fill="#6B7B8B"/>
</g>
<g clip-path="url(#clip9)">
<path d="M317.438 6.4375H330.009V8.72323H317.438V6.4375Z" fill="#6B7B8B"/>
<path d="M314.732 6.66418H314.741V9.19278H315.463V6H314.85L314 6.39398L314.123 6.95364L314.732 6.66418Z" fill="#6B7B8B"/>
<path d="M316.22 14.9248H315.036V14.9147L315.325 14.6739C315.782 14.2703 316.158 13.8517 316.158 13.3258C316.158 12.7565 315.772 12.3438 315.06 12.3438C314.64 12.3438 314.27 12.4877 314.039 12.6655L314.246 13.1866C314.409 13.0662 314.646 12.9309 314.915 12.9309C315.277 12.9309 315.426 13.1341 315.426 13.3879C315.421 13.7549 315.089 14.1056 314.401 14.7221L314 15.0828V15.5278H316.22V14.9248Z" fill="#6B7B8B"/>
<path d="M317.438 12.7812H330.009V15.067H317.438V12.7812Z" fill="#6B7B8B"/>
<path d="M315.592 20.2331V20.2234C315.985 20.09 316.176 19.8198 316.176 19.4812C316.176 19.0439 315.798 18.6875 315.12 18.6875C314.703 18.6875 314.325 18.8041 314.133 18.9264L314.286 19.4673C314.414 19.3883 314.688 19.2765 314.948 19.2765C315.268 19.2765 315.421 19.4177 315.421 19.6093C315.421 19.88 315.106 19.9773 314.855 19.9773H314.566V20.5124H314.87C315.194 20.5124 315.509 20.6555 315.509 20.9743C315.509 21.2103 315.312 21.3967 314.925 21.3967C314.62 21.3967 314.315 21.2744 314.183 21.2002L314.03 21.7657C314.218 21.8774 314.566 21.9857 314.979 21.9857C315.789 21.9857 316.285 21.574 316.285 21.0148C316.285 20.5914 315.976 20.3005 315.592 20.2331Z" fill="#6B7B8B"/>
<path d="M317.438 19.1875H330.009V21.4732H317.438V19.1875Z" fill="#6B7B8B"/>
</g>
<path d="M344.1 9.1C344.3 10.4 344.5 10.7 344.5 12C344.5 12.8 343 13.5 343 13.5V14.5C343 14.5 344.5 15.2 344.5 16C344.5 17.3 344.3 17.6 344.1 18.9C343.8 21 344.9 22 345.9 22C346.9 22 348 22 348 22V20C348 20 346.2 20.2 346.2 19C346.2 18.1 346.4 18.1 346.6 16.1C346.7 15.2 346.1 14.5 345.5 14C346.1 13.5 346.7 12.9 346.6 12C346.3 10 346.2 10 346.2 9.1C346.2 7.9 348 8 348 8V6C348 6 347 6 345.9 6C344.8 6 343.8 7 344.1 9.1Z" fill="#6B7B8B"/>
<path d="M355.9 9.1C355.7 10.4 355.5 10.7 355.5 12C355.5 12.8 357 13.5 357 13.5V14.5C357 14.5 355.5 15.2 355.5 16C355.5 17.3 355.7 17.6 355.9 18.9C356.2 21 355.1 22 354.1 22C353.1 22 352 22 352 22V20C352 20 353.8 20.2 353.8 19C353.8 18.1 353.6 18.1 353.4 16.1C353.3 15.2 353.9 14.5 354.5 14C353.9 13.5 353.3 12.9 353.4 12C353.6 10 353.8 10 353.8 9.1C353.8 7.9 352 8 352 8V6C352 6 353 6 354.1 6C355.2 6 356.2 7 355.9 9.1Z" fill="#6B7B8B"/>
<g clip-path="url(#clip10)">
<path d="M379.144 7.14258V13.9997H383.715C383.715 16.5203 381.664 18.5712 379.144 18.5712V20.8569C382.925 20.8569 386.001 17.781 386.001 13.9997V7.14258H379.144Z" fill="#6B7B8B"/>
<path d="M370 13.9997H374.571C374.571 16.5203 372.521 18.5712 370 18.5712V20.8569C373.781 20.8569 376.857 17.781 376.857 13.9997V7.14258H370V13.9997Z" fill="#6B7B8B"/>
</g>
<path d="M398 12.8574H414V15.1431H398V12.8574Z" fill="#6B7B8B"/>
<g clip-path="url(#clip11)">
<path d="M439.691 5.99805V15.804H429.825L432.232 13.0849L431.053 11.9059L426 16.9586L431.053 22.0112L432.232 20.8323L429.825 18.1132H442V5.99805H439.691Z" fill="#6B7B8B"/>
</g>
<path d="M468.175 8.83887C467.65 8.21804 467.032 7.67735 466.338 7.23785C465.06 6.42805 463.581 6 462.062 6C459.925 6 457.916 6.83214 456.405 8.34315C454.894 9.85416 454.062 11.8632 454.062 14C454.062 16.1368 454.894 18.1459 456.405 19.6569C457.916 21.1678 459.925 22 462.062 22C463.703 22 465.281 21.5061 466.625 20.5717C467.937 19.6593 468.936 18.393 469.516 16.9099L467.697 16.1993C466.784 18.5368 464.572 20.0472 462.061 20.0472C458.727 20.0472 456.014 17.3344 456.014 13.9999C456.014 10.6654 458.727 7.95274 462.062 7.95274C463.749 7.95274 465.31 8.63848 466.431 9.81394L464.305 11.0026L467.078 12.6541L469.85 14.3056L469.894 11.0792L469.938 7.8527L468.175 8.83887Z" fill="#6B7B8B"/>
<path d="M483.825 8.83887C484.349 8.21804 484.968 7.67735 485.662 7.23785C486.94 6.42805 488.419 6 489.938 6C492.075 6 494.084 6.83214 495.595 8.34315C497.106 9.85416 497.938 11.8632 497.938 14C497.938 16.1368 497.106 18.1459 495.595 19.6569C494.084 21.1678 492.075 22 489.938 22C488.296 22 486.718 21.5061 485.375 20.5717C484.063 19.6593 483.063 18.393 482.484 16.9099L484.303 16.1993C485.216 18.5368 487.428 20.0472 489.938 20.0472C493.273 20.0472 495.985 17.3344 495.985 13.9999C495.985 10.6654 493.273 7.95274 489.938 7.95274C488.25 7.95274 486.69 8.63848 485.569 9.81394L487.694 11.0026L484.922 12.6541L482.15 14.3056L482.106 11.0792L482.062 7.8527L483.825 8.83887Z" fill="#6B7B8B"/>
<path d="M18.1716 42.0244C19.3622 41.0955 20.125 39.6755 20.125 38.0869C20.125 35.2953 17.77 33.0244 14.8749 33.0244H6.125V35.2744H7.29165V48.7744H6.125V51.0244H14.875C17.77 51.0244 20.125 48.7536 20.125 45.962C20.125 44.3732 19.3622 42.9533 18.1716 42.0244ZM14.8749 48.7744H9.62496V43.1494H14.8749C16.4831 43.1494 17.7916 44.4112 17.7916 45.9619C17.7916 47.5126 16.4831 48.7744 14.8749 48.7744ZM14.8749 40.8994H9.62496V35.2744H14.8749C16.4831 35.2744 17.7916 36.5362 17.7916 38.0869C17.7916 39.6376 16.4831 40.8994 14.8749 40.8994Z" fill="#414A53"/>
<path d="M49 35.25V33H42.5V35.25H44.1072L38.5358 48.75H36V51H42.5V48.75H40.8928L46.4642 35.25H49Z" fill="#414A53"/>
<path d="M62 33.0244V36.3631H64.638V35.2502H68.5949V39.7017H71.2329V35.2502H75.1898V36.3631H77.8278V33.0244H62Z" fill="#414A53"/>
<path d="M71.2759 44.1533H68.638V48.6048H66V50.8306H73.9139V48.6048H71.2759V44.1533H71.2759Z" fill="#414A53"/>
<path d="M62 40.8135H77.8277V43.0393H62V40.8135Z" fill="#414A53"/>
<g clip-path="url(#clip12)">
<path d="M94.0312 38.0469L90.2373 42.0537L94.0312 46.0605L95.1041 44.9273L92.3832 42.0537L95.1041 39.18L94.0312 38.0469Z" fill="#414A53"/>
<path d="M102.444 38.0469L101.371 39.18L104.092 42.0537L101.371 44.9273L102.444 46.0605L106.238 42.0536L102.444 38.0469Z" fill="#414A53"/>
<path d="M98.8059 37.0566H100.682L97.6488 47.0566H95.7725L98.8059 37.0566Z" fill="#414A53"/>
</g>
<path d="M133.364 40.6615L128.07 35.3058C127.694 34.9254 127.085 34.9254 126.709 35.3058L118.528 43.5829C118.152 43.9632 118.152 44.5795 118.528 44.9598L121.897 48.368C122.077 48.5507 122.322 48.6533 122.577 48.6533H126.427C126.682 48.6533 126.927 48.5507 127.108 48.368L133.364 42.0386C133.74 41.6581 133.74 41.0419 133.364 40.6615ZM126.029 46.7058H122.976L120.57 44.2714L123.299 41.5098L127.232 45.4886L126.029 46.7058Z" fill="#414A53"/>
<path d="M149.904 37.1172L146.255 41.8086L149.904 46.4999L150.936 45.1731L148.319 41.8086L150.936 38.444L149.904 37.1172Z" fill="#414A53"/>
<path d="M157.995 37.1172L156.963 38.444L159.58 41.8086L156.963 45.1731L157.995 46.4999L161.644 41.8085L157.995 37.1172Z" fill="#414A53"/>
<path d="M156.03 40.2866L155.338 39.3965L153.94 41.1919L152.542 39.3965L151.85 40.2866L153.247 42.0821L151.85 43.8775L152.542 44.7677L153.94 42.9722L155.338 44.7677L156.03 43.8775L154.633 42.0821L156.03 40.2866Z" fill="#414A53"/>
<path d="M189.262 33H180.359C176.853 33 174 35.4964 174 38.5644C174 41.6324 176.853 44.1288 180.359 44.1288H181.631V50.8061H184.175V35.2258H185.447V50.8062H187.991V35.2258H189.262V33ZM181.631 41.903H180.359C178.255 41.903 176.544 40.4054 176.544 38.5644C176.544 36.7234 178.255 35.2257 180.359 35.2257H181.631V41.903Z" fill="#414A53"/>
<path d="M202.055 34H204.31V47.6328H202.055V34Z" fill="#414A53"/>
<path d="M210.155 34.1543V39.8424H204.31V42.0991H210.155V47.7872H212.41V34.1543H210.155Z" fill="#414A53"/>
<path d="M216.811 49.9879H215.285V44.1025L213.462 44.6678V43.4263L216.648 42.2852H216.811V49.9879Z" fill="#414A53"/>
<path d="M230.063 34H232.319V47.6328H230.063V34Z" fill="#414A53"/>
<path d="M238.164 34.1543V39.8424H232.318V42.0991H238.164V47.7871H240.419V34.1543H238.164Z" fill="#414A53"/>
<path d="M245.876 49.9892H240.603V48.9432L243.092 46.2911C243.433 45.9177 243.685 45.592 243.847 45.3137C244.013 45.0354 244.095 44.7713 244.095 44.5212C244.095 44.1796 244.009 43.9119 243.837 43.7183C243.664 43.521 243.417 43.4224 243.097 43.4224C242.752 43.4224 242.479 43.5421 242.278 43.7816C242.081 44.0176 241.982 44.3293 241.982 44.7167H240.45C240.45 44.2483 240.561 43.8204 240.783 43.4329C241.008 43.0455 241.325 42.7426 241.734 42.5243C242.143 42.3024 242.606 42.1914 243.123 42.1914C243.916 42.1914 244.53 42.3816 244.967 42.762C245.407 43.1424 245.628 43.6795 245.628 44.3733C245.628 44.7537 245.529 45.1411 245.332 45.5356C245.135 45.9301 244.796 46.3897 244.317 46.9145L242.569 48.7583H245.876V49.9892Z" fill="#414A53"/>
<path d="M258 34H260.28V47.7812H258V34Z" fill="#414A53"/>
<path d="M266.189 34.1562V39.9063H260.279V42.1875H266.189V47.9375H268.468V34.1562H266.189Z" fill="#414A53"/>
<path d="M270.269 45.362H271.111C271.513 45.362 271.81 45.2616 272.003 45.061C272.196 44.8603 272.293 44.5939 272.293 44.2619C272.293 43.9408 272.196 43.6909 272.003 43.5121C271.813 43.3333 271.551 43.2439 271.215 43.2439C270.912 43.2439 270.659 43.3279 270.455 43.4957C270.251 43.6599 270.148 43.8752 270.148 44.1415H268.567C268.567 43.7256 268.678 43.3534 268.901 43.025C269.127 42.693 269.441 42.4339 269.842 42.2479C270.247 42.0618 270.692 41.9688 271.177 41.9688C272.019 41.9688 272.68 42.1713 273.157 42.5762C273.635 42.9776 273.874 43.5322 273.874 44.24C273.874 44.6049 273.763 44.9406 273.54 45.247C273.318 45.5535 273.026 45.7888 272.665 45.953C273.114 46.1136 273.447 46.3544 273.666 46.6755C273.889 46.9965 274 47.376 274 47.8138C274 48.5217 273.741 49.089 273.223 49.5159C272.709 49.9428 272.027 50.1562 271.177 50.1562C270.382 50.1562 269.731 49.9465 269.224 49.5269C268.72 49.1073 268.469 48.5527 268.469 47.8631H270.05C270.05 48.1623 270.161 48.4067 270.384 48.5965C270.61 48.7862 270.887 48.8811 271.215 48.8811C271.591 48.8811 271.885 48.7825 272.096 48.5855C272.311 48.3848 272.419 48.1203 272.419 47.7919C272.419 46.9965 271.981 46.5988 271.106 46.5988H270.269V45.362Z" fill="#414A53"/>
<path d="M289.585 41.1309H302.156V43.4166H289.585V41.1309Z" fill="#414A53"/>
<path d="M289.585 47.04H302.156V49.3258H289.585V47.04Z" fill="#414A53"/>
<path d="M289.585 35.2207H302.156V37.5064H289.585V35.2207Z" fill="#414A53"/>
<path d="M286.039 35.2207H288.325V37.5064H286.039V35.2207Z" fill="#414A53"/>
<path d="M286.039 41.1309H288.325V43.4166H286.039V41.1309Z" fill="#414A53"/>
<path d="M286.039 47.04H288.325V49.3258H286.039V47.04Z" fill="#414A53"/>
<path d="M317.438 34.4375H330.009V36.7232H317.438V34.4375Z" fill="#414A53"/>
<path d="M314.732 34.6642H314.741V37.1928H315.463V34H314.85L314 34.394L314.123 34.9536L314.732 34.6642Z" fill="#414A53"/>
<path d="M316.22 42.9248H315.036V42.9147L315.325 42.6739C315.782 42.2703 316.158 41.8517 316.158 41.3258C316.158 40.7565 315.772 40.3438 315.06 40.3438C314.64 40.3438 314.27 40.4877 314.039 40.6655L314.246 41.1866C314.409 41.0662 314.646 40.9309 314.915 40.9309C315.277 40.9309 315.426 41.1341 315.426 41.3879C315.421 41.7549 315.089 42.1056 314.401 42.7221L314 43.0828V43.5278H316.22V42.9248Z" fill="#414A53"/>
<path d="M317.438 40.7812H330.009V43.067H317.438V40.7812Z" fill="#414A53"/>
<path d="M315.592 48.2331V48.2234C315.985 48.09 316.176 47.8198 316.176 47.4812C316.176 47.0439 315.798 46.6875 315.12 46.6875C314.703 46.6875 314.325 46.8041 314.133 46.9264L314.286 47.4673C314.414 47.3883 314.688 47.2765 314.948 47.2765C315.268 47.2765 315.421 47.4177 315.421 47.6093C315.421 47.88 315.106 47.9773 314.855 47.9773H314.566V48.5124H314.87C315.194 48.5124 315.509 48.6555 315.509 48.9743C315.509 49.2103 315.312 49.3967 314.925 49.3967C314.62 49.3967 314.315 49.2744 314.183 49.2002L314.03 49.7657C314.218 49.8774 314.566 49.9857 314.979 49.9857C315.789 49.9857 316.285 49.574 316.285 49.0148C316.285 48.5914 315.976 48.3005 315.592 48.2331Z" fill="#414A53"/>
<path d="M317.438 47.1875H330.009V49.4732H317.438V47.1875Z" fill="#414A53"/>
<path d="M344.1 37.1C344.3 38.4 344.5 38.7 344.5 40C344.5 40.8 343 41.5 343 41.5V42.5C343 42.5 344.5 43.2 344.5 44C344.5 45.3 344.3 45.6 344.1 46.9C343.8 49 344.9 50 345.9 50C346.9 50 348 50 348 50V48C348 48 346.2 48.2 346.2 47C346.2 46.1 346.4 46.1 346.6 44.1C346.7 43.2 346.1 42.5 345.5 42C346.1 41.5 346.7 40.9 346.6 40C346.3 38 346.2 38 346.2 37.1C346.2 35.9 348 36 348 36V34C348 34 347 34 345.9 34C344.8 34 343.8 35 344.1 37.1Z" fill="#414A53"/>
<path d="M355.9 37.1C355.7 38.4 355.5 38.7 355.5 40C355.5 40.8 357 41.5 357 41.5V42.5C357 42.5 355.5 43.2 355.5 44C355.5 45.3 355.7 45.6 355.9 46.9C356.2 49 355.1 50 354.1 50C353.1 50 352 50 352 50V48C352 48 353.8 48.2 353.8 47C353.8 46.1 353.6 46.1 353.4 44.1C353.3 43.2 353.9 42.5 354.5 42C353.9 41.5 353.3 40.9 353.4 40C353.6 38 353.8 38 353.8 37.1C353.8 35.9 352 36 352 36V34C352 34 353 34 354.1 34C355.2 34 356.2 35 355.9 37.1Z" fill="#414A53"/>
<path d="M379.144 35.1426V41.9997H383.715C383.715 44.5203 381.664 46.5712 379.144 46.5712V48.8569C382.925 48.8569 386.001 45.781 386.001 41.9997V35.1426H379.144Z" fill="#414A53"/>
<path d="M370 41.9997H374.571C374.571 44.5203 372.521 46.5712 370 46.5712V48.8569C373.781 48.8569 376.857 45.781 376.857 41.9997V35.1426H370V41.9997Z" fill="#414A53"/>
<path d="M398 40.8574H414V43.1431H398V40.8574Z" fill="#414A53"/>
<path d="M439.691 33.998V43.804H429.825L432.232 41.0849L431.053 39.9059L426 44.9586L431.053 50.0112L432.232 48.8323L429.825 46.1132H442V33.998H439.691Z" fill="#414A53"/>
<path d="M468.175 36.8389C467.65 36.218 467.032 35.6773 466.338 35.2378C465.06 34.428 463.581 34 462.062 34C459.925 34 457.916 34.8321 456.405 36.3431C454.894 37.8542 454.062 39.8632 454.062 42C454.062 44.1368 454.894 46.1459 456.405 47.6569C457.916 49.1678 459.925 50 462.062 50C463.703 50 465.281 49.5061 466.625 48.5717C467.937 47.6593 468.936 46.393 469.516 44.9099L467.697 44.1993C466.784 46.5368 464.572 48.0472 462.061 48.0472C458.727 48.0472 456.014 45.3344 456.014 41.9999C456.014 38.6654 458.727 35.9527 462.062 35.9527C463.749 35.9527 465.31 36.6385 466.431 37.8139L464.305 39.0026L467.078 40.6541L469.85 42.3056L469.894 39.0792L469.938 35.8527L468.175 36.8389Z" fill="#414A53"/>
<path d="M483.825 36.8389C484.349 36.218 484.968 35.6773 485.662 35.2378C486.94 34.428 488.419 34 489.938 34C492.075 34 494.084 34.8321 495.595 36.3431C497.106 37.8542 497.938 39.8632 497.938 42C497.938 44.1368 497.106 46.1459 495.595 47.6569C494.084 49.1678 492.075 50 489.938 50C488.296 50 486.718 49.5061 485.375 48.5717C484.063 47.6593 483.063 46.393 482.484 44.9099L484.303 44.1993C485.216 46.5368 487.428 48.0472 489.938 48.0472C493.273 48.0472 495.985 45.3344 495.985 41.9999C495.985 38.6654 493.273 35.9527 489.938 35.9527C488.25 35.9527 486.69 36.6385 485.569 37.8139L487.694 39.0026L484.922 40.6541L482.15 42.3056L482.106 39.0792L482.062 35.8527L483.825 36.8389Z" fill="#414A53"/>
<defs>
<clipPath id="clip0">
<rect width="14" height="18" fill="white" transform="translate(7 5)"/>
</clipPath>
<clipPath id="clip1">
<rect width="13" height="18" fill="white" transform="translate(36 5)"/>
</clipPath>
<clipPath id="clip2">
<rect width="16" height="18" fill="white" transform="translate(62 5)"/>
</clipPath>
<clipPath id="clip3">
<rect width="16" height="10" fill="white" transform="translate(90 9)"/>
</clipPath>
<clipPath id="clip4">
<rect width="16" height="18" fill="white" transform="translate(174 5)"/>
</clipPath>
<clipPath id="clip5">
<rect width="16" height="16" fill="white" transform="translate(202 6)"/>
</clipPath>
<clipPath id="clip6">
<rect width="16" height="16" fill="white" transform="translate(230 6)"/>
</clipPath>
<clipPath id="clip7">
<rect width="16" height="16" fill="white" transform="translate(258 6)"/>
</clipPath>
<clipPath id="clip8">
<rect width="16" height="16" fill="white" transform="translate(286 6)"/>
</clipPath>
<clipPath id="clip9">
<rect width="16" height="16" fill="white" transform="translate(314 6)"/>
</clipPath>
<clipPath id="clip10">
<rect width="16" height="16" fill="white" transform="translate(370 6)"/>
</clipPath>
<clipPath id="clip11">
<rect width="16" height="16" fill="white" transform="translate(426 6)"/>
</clipPath>
<clipPath id="clip12">
<rect width="16" height="10" fill="white" transform="translate(90 37)"/>
</clipPath>
</defs>
</svg>
