<svg width="513" height="343" viewBox="0 0 513 343" fill="none" xmlns="http://www.w3.org/2000/svg">
<g clip-path="url(#clip0_3_2378)">
<path d="M0 0.95752H513V342.958H0V0.95752Z" fill="white"/>
<path d="M0 0.95752H513V27.2575H0V0.95752ZM0 53.5575H513V79.8575H0V53.5575ZM0 106.158H513V132.458H0V106.158ZM0 158.758H513V185.058H0V158.758ZM0 211.458H513V237.758H0V211.458ZM0 264.058H513V290.358H0V264.058ZM0 316.658H513V342.958H0V316.658Z" fill="#D80027"/>
<path d="M0 0.95752H256.5V185.058H0V0.95752Z" fill="#2E52B2"/>
<path d="M47.8002 139.858L43.8002 127.058L39.4002 139.858H26.2002L36.9002 147.558L32.9002 160.358L43.8002 152.458L54.4002 160.358L50.3002 147.558L61.2002 139.858H47.8002ZM104.1 139.858L100 127.058L95.8002 139.858H82.6002L93.3002 147.558L89.3002 160.358L100 152.458L110.8 160.358L106.8 147.558L117.5 139.858H104.1ZM160.6 139.858L156.3 127.058L152.3 139.858H138.8L149.8 147.558L145.6 160.358L156.3 152.458L167.3 160.358L163.1 147.558L173.8 139.858H160.6ZM216.8 139.858L212.8 127.058L208.6 139.858H195.3L206.1 147.558L202.1 160.358L212.8 152.458L223.6 160.358L219.3 147.558L230.3 139.858H216.8ZM100 76.2577L95.8002 89.0577H82.6002L93.3002 96.9577L89.3002 109.558L100 101.758L110.8 109.558L106.8 96.9577L117.5 89.0577H104.1L100 76.2577ZM43.8002 76.2577L39.4002 89.0577H26.2002L36.9002 96.9577L32.9002 109.558L43.8002 101.758L54.4002 109.558L50.3002 96.9577L61.2002 89.0577H47.8002L43.8002 76.2577ZM156.3 76.2577L152.3 89.0577H138.8L149.8 96.9577L145.6 109.558L156.3 101.758L167.3 109.558L163.1 96.9577L173.8 89.0577H160.6L156.3 76.2577ZM212.8 76.2577L208.6 89.0577H195.3L206.1 96.9577L202.1 109.558L212.8 101.758L223.6 109.558L219.3 96.9577L230.3 89.0577H216.8L212.8 76.2577ZM43.8002 25.6577L39.4002 38.2577H26.2002L36.9002 46.1577L32.9002 58.8577L43.8002 50.9577L54.4002 58.8577L50.3002 46.1577L61.2002 38.2577H47.8002L43.8002 25.6577ZM100 25.6577L95.8002 38.2577H82.6002L93.3002 46.1577L89.3002 58.8577L100 50.9577L110.8 58.8577L106.8 46.1577L117.5 38.2577H104.1L100 25.6577ZM156.3 25.6577L152.3 38.2577H138.8L149.8 46.1577L145.6 58.8577L156.3 50.9577L167.3 58.8577L163.1 46.1577L173.8 38.2577H160.6L156.3 25.6577ZM212.8 25.6577L208.6 38.2577H195.3L206.1 46.1577L202.1 58.8577L212.8 50.9577L223.6 58.8577L219.3 46.1577L230.3 38.2577H216.8L212.8 25.6577Z" fill="white"/>
</g>
<defs>
<clipPath id="clip0_3_2378">
<rect width="513" height="342" fill="white" transform="translate(0 0.95752)"/>
</clipPath>
</defs>
</svg>
