<svg width="33" height="33" viewBox="0 0 33 33" fill="none" xmlns="http://www.w3.org/2000/svg">
<circle cx="16.5" cy="16.5" r="16.5" fill="#7367F0"/>
<path d="M27.6713 17.217L24.5392 20.3455C24.3304 20.5541 24.1216 20.6584 23.8084 20.6584C23.4951 20.6584 23.2863 20.5541 23.0775 20.3455C22.6599 19.9284 22.6599 19.3027 23.0775 18.8855L24.4348 17.5298H17.5441V24.4127L18.9014 23.057C19.319 22.6398 19.9454 22.6398 20.363 23.057C20.7806 23.4741 20.7806 24.0998 20.363 24.5169L17.2309 27.6455C17.1265 27.7498 17.0221 27.8541 16.9177 27.8541C16.8133 27.9584 16.6045 27.9584 16.5001 27.9584C16.3957 27.9584 16.1869 27.9584 16.0825 27.8541C15.9781 27.7498 15.8737 27.7498 15.7693 27.6455L12.6371 24.5169C12.2195 24.0998 12.2195 23.4741 12.6371 23.057C13.0548 22.6398 13.6812 22.6398 14.0988 23.057L15.456 24.4127V17.5298H8.56538L9.92263 18.8855C10.3402 19.3027 10.3402 19.9284 9.92263 20.3455C9.71383 20.5541 9.50502 20.6584 9.19181 20.6584C8.87859 20.6584 8.66979 20.5541 8.46098 20.3455L5.32886 17.217C5.22445 17.1127 5.12005 17.0084 5.12005 16.9041C5.01565 16.6956 5.01565 16.3827 5.12005 16.0698C5.22445 15.9656 5.22445 15.8613 5.32886 15.757L8.46098 12.6284C8.87859 12.2113 9.50502 12.2113 9.92263 12.6284C10.3402 13.0456 10.3402 13.6713 9.92263 14.0884L8.56538 15.4441H15.456V8.56131L14.0988 9.91702C13.6812 10.3342 13.0548 10.3342 12.6371 9.91702C12.2195 9.49988 12.2195 8.87417 12.6371 8.45703L15.7693 5.32847C15.8737 5.22419 15.9781 5.1199 16.0825 5.1199C16.2913 5.01562 16.6045 5.01562 16.9177 5.1199C17.0221 5.22419 17.1265 5.22419 17.2309 5.32847L20.363 8.45703C20.7806 8.87417 20.7806 9.49988 20.363 9.91702C20.1542 10.1256 19.9454 10.2299 19.6322 10.2299C19.319 10.2299 19.1102 10.1256 18.9014 9.91702L17.5441 8.56131V15.4441H24.4348L23.0775 14.0884C22.6599 13.6713 22.6599 13.0456 23.0775 12.6284C23.4951 12.2113 24.1216 12.2113 24.5392 12.6284L27.6713 15.757C27.7757 15.8613 27.8801 15.9656 27.8801 16.0698C27.9845 16.2784 27.9845 16.5913 27.8801 16.9041C27.8801 17.0084 27.7757 17.1127 27.6713 17.217Z" fill="black"/>
<mask id="mask0_164_3369" style="mask-type:alpha" maskUnits="userSpaceOnUse" x="5" y="5" width="23" height="23">
<path d="M27.6713 17.217L24.5392 20.3455C24.3304 20.5541 24.1216 20.6584 23.8084 20.6584C23.4951 20.6584 23.2863 20.5541 23.0775 20.3455C22.6599 19.9284 22.6599 19.3027 23.0775 18.8855L24.4348 17.5298H17.5441V24.4127L18.9014 23.057C19.319 22.6398 19.9454 22.6398 20.363 23.057C20.7806 23.4741 20.7806 24.0998 20.363 24.5169L17.2309 27.6455C17.1265 27.7498 17.0221 27.8541 16.9177 27.8541C16.8133 27.9584 16.6045 27.9584 16.5001 27.9584C16.3957 27.9584 16.1869 27.9584 16.0825 27.8541C15.9781 27.7498 15.8737 27.7498 15.7693 27.6455L12.6371 24.5169C12.2195 24.0998 12.2195 23.4741 12.6371 23.057C13.0548 22.6398 13.6812 22.6398 14.0988 23.057L15.456 24.4127V17.5298H8.56538L9.92263 18.8855C10.3402 19.3027 10.3402 19.9284 9.92263 20.3455C9.71383 20.5541 9.50502 20.6584 9.19181 20.6584C8.87859 20.6584 8.66979 20.5541 8.46098 20.3455L5.32886 17.217C5.22445 17.1127 5.12005 17.0084 5.12005 16.9041C5.01565 16.6956 5.01565 16.3827 5.12005 16.0698C5.22445 15.9656 5.22445 15.8613 5.32886 15.757L8.46098 12.6284C8.87859 12.2113 9.50502 12.2113 9.92263 12.6284C10.3402 13.0456 10.3402 13.6713 9.92263 14.0884L8.56538 15.4441H15.456V8.56131L14.0988 9.91702C13.6812 10.3342 13.0548 10.3342 12.6371 9.91702C12.2195 9.49988 12.2195 8.87417 12.6371 8.45703L15.7693 5.32847C15.8737 5.22419 15.9781 5.1199 16.0825 5.1199C16.2913 5.01562 16.6045 5.01562 16.9177 5.1199C17.0221 5.22419 17.1265 5.22419 17.2309 5.32847L20.363 8.45703C20.7806 8.87417 20.7806 9.49988 20.363 9.91702C20.1542 10.1256 19.9454 10.2299 19.6322 10.2299C19.319 10.2299 19.1102 10.1256 18.9014 9.91702L17.5441 8.56131V15.4441H24.4348L23.0775 14.0884C22.6599 13.6713 22.6599 13.0456 23.0775 12.6284C23.4951 12.2113 24.1216 12.2113 24.5392 12.6284L27.6713 15.757C27.7757 15.8613 27.8801 15.9656 27.8801 16.0698C27.9845 16.2784 27.9845 16.5913 27.8801 16.9041C27.8801 17.0084 27.7757 17.1127 27.6713 17.217Z" fill="white"/>
</mask>
<g mask="url(#mask0_164_3369)">
<rect x="4" y="4" width="25" height="25" fill="white"/>
</g>
</svg>
